<svg width="25" height="25" viewBox="0 0 25 25" fill="none" xmlns="http://www.w3.org/2000/svg">
<g id="icon-newpost">
<rect width="23" height="23" transform="translate(1 1)" fill="#FAF8F2"/>
<g id="icon-newpost_2">
<path fill-rule="evenodd" clip-rule="evenodd" d="M16.7368 2.81579H8.26316C5.25466 2.81579 2.81579 5.25466 2.81579 8.26316V16.7368C2.81579 19.7453 5.25466 22.1842 8.26316 22.1842H16.7368C19.7453 22.1842 22.1842 19.7453 22.1842 16.7368V8.26316C22.1842 5.25466 19.7453 2.81579 16.7368 2.81579ZM8.26316 1C4.25183 1 1 4.25183 1 8.26316V16.7368C1 20.7482 4.25183 24 8.26316 24H16.7368C20.7482 24 24 20.7482 24 16.7368V8.26316C24 4.25183 20.7482 1 16.7368 1H8.26316Z" fill="#0097B2"/>
<path fill-rule="evenodd" clip-rule="evenodd" d="M12.5 5.53947C13.0014 5.53947 13.4079 5.94595 13.4079 6.44737V11.5921H18.5526C19.054 11.5921 19.4605 11.9986 19.4605 12.5C19.4605 13.0014 19.054 13.4079 18.5526 13.4079H13.4079V18.5526C13.4079 19.054 13.0014 19.4605 12.5 19.4605C11.9986 19.4605 11.5921 19.054 11.5921 18.5526V13.4079H6.44737C5.94595 13.4079 5.53947 13.0014 5.53947 12.5C5.53947 11.9986 5.94595 11.5921 6.44737 11.5921H11.5921V6.44737C11.5921 5.94595 11.9986 5.53947 12.5 5.53947Z" fill="#0097B2"/>
<path d="M13.4079 11.5921H12.4079C12.4079 12.1444 12.8556 12.5921 13.4079 12.5921V11.5921ZM13.4079 13.4079V12.4079C12.8556 12.4079 12.4079 12.8556 12.4079 13.4079H13.4079ZM11.5921 13.4079H12.5921C12.5921 12.8556 12.1444 12.4079 11.5921 12.4079V13.4079ZM11.5921 11.5921V12.5921C12.1444 12.5921 12.5921 12.1444 12.5921 11.5921H11.5921ZM8.26316 3.81579H16.7368V1.81579H8.26316V3.81579ZM3.81579 8.26316C3.81579 5.80694 5.80694 3.81579 8.26316 3.81579V1.81579C4.70237 1.81579 1.81579 4.70237 1.81579 8.26316H3.81579ZM3.81579 16.7368V8.26316H1.81579V16.7368H3.81579ZM8.26316 21.1842C5.80694 21.1842 3.81579 19.1931 3.81579 16.7368H1.81579C1.81579 20.2976 4.70237 23.1842 8.26316 23.1842V21.1842ZM16.7368 21.1842H8.26316V23.1842H16.7368V21.1842ZM21.1842 16.7368C21.1842 19.1931 19.1931 21.1842 16.7368 21.1842V23.1842C20.2976 23.1842 23.1842 20.2976 23.1842 16.7368H21.1842ZM21.1842 8.26316V16.7368H23.1842V8.26316H21.1842ZM16.7368 3.81579C19.1931 3.81579 21.1842 5.80694 21.1842 8.26316H23.1842C23.1842 4.70237 20.2976 1.81579 16.7368 1.81579V3.81579ZM2 8.26316C2 4.80411 4.80411 2 8.26316 2V0C3.69954 0 0 3.69954 0 8.26316H2ZM2 16.7368V8.26316H0V16.7368H2ZM8.26316 23C4.80411 23 2 20.1959 2 16.7368H0C0 21.3005 3.69954 25 8.26316 25V23ZM16.7368 23H8.26316V25H16.7368V23ZM23 16.7368C23 20.1959 20.1959 23 16.7368 23V25C21.3005 25 25 21.3005 25 16.7368H23ZM23 8.26316V16.7368H25V8.26316H23ZM16.7368 2C20.1959 2 23 4.80411 23 8.26316H25C25 3.69954 21.3005 0 16.7368 0V2ZM8.26316 2H16.7368V0H8.26316V2ZM14.4079 6.44737C14.4079 5.39367 13.5537 4.53947 12.5 4.53947V6.53947C12.4491 6.53947 12.4079 6.49824 12.4079 6.44737H14.4079ZM14.4079 11.5921V6.44737H12.4079V11.5921H14.4079ZM18.5526 10.5921H13.4079V12.5921H18.5526V10.5921ZM20.4605 12.5C20.4605 11.4463 19.6063 10.5921 18.5526 10.5921V12.5921C18.5018 12.5921 18.4605 12.5509 18.4605 12.5H20.4605ZM18.5526 14.4079C19.6063 14.4079 20.4605 13.5537 20.4605 12.5H18.4605C18.4605 12.4491 18.5018 12.4079 18.5526 12.4079V14.4079ZM13.4079 14.4079H18.5526V12.4079H13.4079V14.4079ZM14.4079 18.5526V13.4079H12.4079V18.5526H14.4079ZM12.5 20.4605C13.5537 20.4605 14.4079 19.6063 14.4079 18.5526H12.4079C12.4079 18.5018 12.4491 18.4605 12.5 18.4605V20.4605ZM10.5921 18.5526C10.5921 19.6063 11.4463 20.4605 12.5 20.4605V18.4605C12.5509 18.4605 12.5921 18.5018 12.5921 18.5526H10.5921ZM10.5921 13.4079V18.5526H12.5921V13.4079H10.5921ZM6.44737 14.4079H11.5921V12.4079H6.44737V14.4079ZM4.53947 12.5C4.53947 13.5537 5.39367 14.4079 6.44737 14.4079V12.4079C6.49824 12.4079 6.53947 12.4491 6.53947 12.5H4.53947ZM6.44737 10.5921C5.39367 10.5921 4.53947 11.4463 4.53947 12.5H6.53947C6.53947 12.5509 6.49824 12.5921 6.44737 12.5921V10.5921ZM11.5921 10.5921H6.44737V12.5921H11.5921V10.5921ZM10.5921 6.44737V11.5921H12.5921V6.44737H10.5921ZM12.5 4.53947C11.4463 4.53947 10.5921 5.39367 10.5921 6.44737H12.5921C12.5921 6.49824 12.5509 6.53947 12.5 6.53947V4.53947Z" fill="#0097B2"/>
</g>
</g>
</svg>
