<svg width="23" height="23" viewBox="0 0 23 23" fill="none" xmlns="http://www.w3.org/2000/svg">
<g id="home" clip-path="url(#clip0_11_349)">
<g id="Group">
<g id="Group_2">
<path id="Vector" d="M22.6137 10.2819L12.2944 0.878914C11.8414 0.466128 11.1584 0.466173 10.7056 0.87887L0.386239 10.2819C0.0234062 10.6125 -0.0964451 11.1219 0.0808163 11.5796C0.258123 12.0374 0.689821 12.3331 1.18068 12.3331H2.82886V21.7541C2.82886 22.1276 3.13172 22.4305 3.50525 22.4305H9.16153C9.53506 22.4305 9.83792 22.1277 9.83792 21.7541V16.034H13.1622V21.7542C13.1622 22.1277 13.4651 22.4305 13.8386 22.4305H19.4946C19.8681 22.4305 20.171 22.1277 20.171 21.7542V12.3331H21.8195C22.3103 12.3331 22.7421 12.0373 22.9194 11.5796C23.0964 11.1219 22.9766 10.6125 22.6137 10.2819Z" fill="#0097B2"/>
</g>
</g>
<g id="Group_3">
<g id="Group_4">
<path id="Vector_2" d="M19.9943 1.91956H15.4519L20.6707 6.66491V2.5959C20.6707 2.22237 20.3679 1.91956 19.9943 1.91956Z" fill="#0097B2"/>
</g>
</g>
</g>
<defs>
<clipPath id="clip0_11_349">
<rect width="23" height="23" fill="white"/>
</clipPath>
</defs>
</svg>
