<svg width="22" height="22" viewBox="0 0 22 22" fill="none" xmlns="http://www.w3.org/2000/svg">
<g id="dashboard-square-02">
<path id="Vector" d="M1.83325 5.49998C1.83325 3.77149 1.83325 2.90725 2.37023 2.37029C2.90719 1.83331 3.77143 1.83331 5.49992 1.83331C7.2284 1.83331 8.09265 1.83331 8.62961 2.37029C9.16658 2.90725 9.16658 3.77149 9.16658 5.49998V7.33331C9.16658 9.0618 9.16658 9.92601 8.62961 10.463C8.09265 11 7.2284 11 5.49992 11C3.77143 11 2.90719 11 2.37023 10.463C1.83325 9.92601 1.83325 9.0618 1.83325 7.33331V5.49998Z" stroke="#0097B2" stroke-width="2.7"/>
<path id="Vector_2" d="M1.83325 17.4167C1.83325 16.5624 1.83325 16.1354 1.97281 15.7984C2.15888 15.3492 2.51578 14.9923 2.965 14.8062C3.30192 14.6667 3.72903 14.6667 4.58325 14.6667H6.41658C7.27081 14.6667 7.69792 14.6667 8.03484 14.8062C8.48405 14.9923 8.84096 15.3492 9.02703 15.7984C9.16658 16.1354 9.16658 16.5624 9.16658 17.4167C9.16658 18.2709 9.16658 18.698 9.02703 19.035C8.84096 19.4841 8.48405 19.8411 8.03484 20.0272C7.69792 20.1667 7.27081 20.1667 6.41658 20.1667H4.58325C3.72903 20.1667 3.30192 20.1667 2.965 20.0272C2.51578 19.8411 2.15888 19.4841 1.97281 19.035C1.83325 18.698 1.83325 18.2709 1.83325 17.4167Z" stroke="#0097B2" stroke-width="2.7"/>
<path id="Vector_3" d="M12.8333 14.6667C12.8333 12.9382 12.8333 12.074 13.3702 11.537C13.9072 11 14.7715 11 16.4999 11C18.2284 11 19.0926 11 19.6296 11.537C20.1666 12.074 20.1666 12.9382 20.1666 14.6667V16.5C20.1666 18.2285 20.1666 19.0927 19.6296 19.6297C19.0926 20.1667 18.2284 20.1667 16.4999 20.1667C14.7715 20.1667 13.9072 20.1667 13.3702 19.6297C12.8333 19.0927 12.8333 18.2285 12.8333 16.5V14.6667Z" stroke="#0097B2" stroke-width="2.7"/>
<path id="Vector_4" d="M12.8333 4.58331C12.8333 3.72909 12.8333 3.30198 12.9728 2.96506C13.1589 2.51584 13.5158 2.15894 13.965 1.97287C14.3019 1.83331 14.729 1.83331 15.5833 1.83331H17.4166C18.2708 1.83331 18.6979 1.83331 19.0349 1.97287C19.484 2.15894 19.841 2.51584 20.0271 2.96506C20.1666 3.30198 20.1666 3.72909 20.1666 4.58331C20.1666 5.43754 20.1666 5.86465 20.0271 6.20157C19.841 6.65078 19.484 7.00769 19.0349 7.19376C18.6979 7.33331 18.2708 7.33331 17.4166 7.33331H15.5833C14.729 7.33331 14.3019 7.33331 13.965 7.19376C13.5158 7.00769 13.1589 6.65078 12.9728 6.20157C12.8333 5.86465 12.8333 5.43754 12.8333 4.58331Z" stroke="#0097B2" stroke-width="2.7"/>
</g>
</svg>
