<svg width="22" height="22" viewBox="0 0 22 22" fill="none" xmlns="http://www.w3.org/2000/svg">
<g id="dashboard-square-02">
<path id="Vector" d="M1.8335 5.49998C1.8335 3.77149 1.8335 2.90725 2.37047 2.37029C2.90744 1.83331 3.77168 1.83331 5.50016 1.83331C7.22865 1.83331 8.09289 1.83331 8.62985 2.37029C9.16683 2.90725 9.16683 3.77149 9.16683 5.49998V7.33331C9.16683 9.0618 9.16683 9.92601 8.62985 10.463C8.09289 11 7.22865 11 5.50016 11C3.77168 11 2.90744 11 2.37047 10.463C1.8335 9.92601 1.8335 9.0618 1.8335 7.33331V5.49998Z" stroke="#D9D9D9" stroke-width="2.7"/>
<path id="Vector_2" d="M1.8335 17.4167C1.8335 16.5624 1.8335 16.1354 1.97305 15.7984C2.15912 15.3492 2.51603 14.9923 2.96524 14.8062C3.30216 14.6667 3.72927 14.6667 4.5835 14.6667H6.41683C7.27105 14.6667 7.69816 14.6667 8.03508 14.8062C8.4843 14.9923 8.8412 15.3492 9.02728 15.7984C9.16683 16.1354 9.16683 16.5624 9.16683 17.4167C9.16683 18.2709 9.16683 18.698 9.02728 19.035C8.8412 19.4841 8.4843 19.8411 8.03508 20.0272C7.69816 20.1667 7.27105 20.1667 6.41683 20.1667H4.5835C3.72927 20.1667 3.30216 20.1667 2.96524 20.0272C2.51603 19.8411 2.15912 19.4841 1.97305 19.035C1.8335 18.698 1.8335 18.2709 1.8335 17.4167Z" stroke="#D9D9D9" stroke-width="2.7"/>
<path id="Vector_3" d="M12.8335 14.6667C12.8335 12.9382 12.8335 12.074 13.3705 11.537C13.9075 11 14.7717 11 16.5002 11C18.2286 11 19.0929 11 19.6298 11.537C20.1668 12.074 20.1668 12.9382 20.1668 14.6667V16.5C20.1668 18.2285 20.1668 19.0927 19.6298 19.6297C19.0929 20.1667 18.2286 20.1667 16.5002 20.1667C14.7717 20.1667 13.9075 20.1667 13.3705 19.6297C12.8335 19.0927 12.8335 18.2285 12.8335 16.5V14.6667Z" stroke="#D9D9D9" stroke-width="2.7"/>
<path id="Vector_4" d="M12.8335 4.58331C12.8335 3.72909 12.8335 3.30198 12.973 2.96506C13.1591 2.51584 13.516 2.15894 13.9652 1.97287C14.3022 1.83331 14.7293 1.83331 15.5835 1.83331H17.4168C18.2711 1.83331 18.6981 1.83331 19.0351 1.97287C19.4843 2.15894 19.8412 2.51584 20.0273 2.96506C20.1668 3.30198 20.1668 3.72909 20.1668 4.58331C20.1668 5.43754 20.1668 5.86465 20.0273 6.20157C19.8412 6.65078 19.4843 7.00769 19.0351 7.19376C18.6981 7.33331 18.2711 7.33331 17.4168 7.33331H15.5835C14.7293 7.33331 14.3022 7.33331 13.9652 7.19376C13.516 7.00769 13.1591 6.65078 12.973 6.20157C12.8335 5.86465 12.8335 5.43754 12.8335 4.58331Z" stroke="#D9D9D9" stroke-width="2.7"/>
</g>
</svg>
